# xmcd
#
# Track frame offsets:
#	150
#	20584
#	33339
#	52341
#	78219
#	86327
#	100256
#	117901
#	135706
#	154137
#	173107
#	192366
#	215938
#
# Disc length: 3023 seconds
#
# Revision: 1
# Processed by: cddbd v1.4PL0 Copyright (c) Steve Scherf et al.
# Submitted via: audiograbber 1.80
#
DISCID=b20bcd0d
DTITLE=Sergio BAP - Sentimental Blues
DYEAR=1900
DGENRE=
TTITLE0=Cotton Dreams
TTITLE1=Bike Walking
TTITLE2=Happy Blues
TTITLE3=Tears of Love
TTITLE4=Acoustic One
TTITLE5=Latin Jam
TTITLE6=Bicuda Hill
TTITLE7=King Albert
TTITLE8=B.B
TTITLE9=Sentimental Blues (Missin)
TTITLE10=Apaloosa
TTITLE11=Strutgart
TTITLE12=Acoustic Two
EXTD=
EXTT0=
EXTT1=
EXTT2=
EXTT3=
EXTT4=
EXTT5=
EXTT6=
EXTT7=
EXTT8=
EXTT9=
EXTT10=
EXTT11=
EXTT12=
PLAYORDER=
